<svg xmlns="http://www.w3.org/2000/svg" viewBox="4205.498 755.432 247.917 235.595">
  <defs>
    <style>
      .cls-1, .cls-2 {
        fill: none;
      }

      .cls-2 {
        stroke: #c1bfc1;
        stroke-width: 6px;
      }

      .cls-3, .cls-4, .cls-5 {
        stroke: none;
      }

      .cls-4 {
        fill: #468f83;
      }

      .cls-5 {
        fill: #c1bfc1;
      }
    </style>
  </defs>
  <g id="Logo" transform="translate(4202.414 920.853) rotate(-42)">
    <g id="Path_10" data-name="Path 10" class="cls-1" transform="translate(175.443 17.269)">
      <path class="cls-3" d="M32.363.042A32.355,32.355,0,1,1,.042,32.355,32.459,32.459,0,0,1,32.363.042Z"/>
      <path class="cls-4" d="M 32.48830032348633 64.75159454345703 L 32.48830032348633 58.75159072875977 C 39.5214729309082 58.75159072875977 46.12747192382812 56.01541900634766 51.08941650390625 51.04709243774414 C 56.04921722412109 46.08090591430664 58.77571487426758 39.47489166259766 58.76665878295898 32.44594955444336 C 58.74794387817383 17.9052619934082 46.89963150024414 6.060334205627441 32.3199577331543 6.041605472564697 C 25.28742980957031 6.041605472564697 18.68160057067871 8.777962684631348 13.71935844421387 13.74659156799316 C 8.759258270263672 18.71307754516602 6.032587051391602 25.31892013549805 6.041629791259766 32.34723281860352 C 6.060344219207764 46.88792037963867 17.90865898132324 58.73284912109375 32.45185852050781 58.75156402587891 L 32.48830032348633 64.75159454345703 M 32.48830795288086 64.7515869140625 C 32.47412872314453 64.7515869140625 32.45995330810547 64.75157928466797 32.44577407836914 64.75156402587891 C 14.57245826721191 64.72856140136719 0.06463000178337097 50.22412109375 0.04162999987602234 32.35496139526367 C 0.0186639279127121 14.50107479095459 14.46771621704102 0.04160669818520546 32.31995391845703 0.04160669818520546 C 32.33522033691406 0.04160669818520546 32.34724426269531 0.04161439090967178 32.36251449584961 0.04163404181599617 C 50.2358283996582 0.0646197572350502 64.74365997314453 14.56907653808594 64.76665496826172 32.4382209777832 C 64.78964233398438 50.29319763183594 50.3420524597168 64.7515869140625 32.48830795288086 64.7515869140625 Z"/>
    </g>
    <g id="Path_11" data-name="Path 11" class="cls-1" transform="translate(162.466 4.69)">
      <path class="cls-3" d="M44.984.058A44.973,44.973,0,1,1,.058,44.973,45.119,45.119,0,0,1,44.984.058Z"/>
      <path class="cls-5" d="M 45.15877151489258 90.00469970703125 L 45.15877151489258 84.00469970703125 C 55.5595703125 84.00469970703125 65.32965850830078 79.95738983154297 72.66928100585938 72.60833740234375 C 80.00591278076172 65.26226806640625 84.03900909423828 55.49182891845703 84.02564239501953 45.09686660766602 C 83.99798583984375 23.59835624694824 66.48046112060547 6.085519790649414 44.92477035522461 6.057828903198242 C 34.5230598449707 6.057828903198242 24.75273323059082 10.10490131378174 17.41357040405273 17.45351982116699 C 10.07735157012939 24.79917526245117 6.044497489929199 34.56984710693359 6.057878971099854 44.96568298339844 C 6.08551549911499 66.46417236328125 23.60304260253906 83.97701263427734 45.10989761352539 84.00466156005859 L 45.15877151489258 90.00469970703125 M 45.15877151489258 90.00469970703125 C 45.13755035400391 90.00469970703125 45.12085342407227 90.00469207763672 45.09962463378906 90.00466156005859 C 20.25571632385254 89.97270202636719 0.08982458710670471 69.81150054931641 0.05787913501262665 44.97339248657227 C 0.02594085969030857 20.15499114990234 20.10807609558105 0.05782726034522057 44.92476272583008 0.05782726034522057 C 44.9444694519043 0.05782726034522057 44.96416473388672 0.05783991143107414 44.98387908935547 0.05786525830626488 C 69.82780456542969 0.08982889354228973 89.99368286132812 20.25101089477539 90.02564239501953 45.08913803100586 C 90.05756378173828 69.90602111816406 69.97336578369141 90.00469970703125 45.15877151489258 90.00469970703125 Z"/>
    </g>
    <g id="Path_12" data-name="Path 12" class="cls-1" transform="translate(0.006 4.481)">
      <path class="cls-3" d="M44.984.058A44.973,44.973,0,1,1,.058,44.973,45.119,45.119,0,0,1,44.984.058Z"/>
      <path class="cls-5" d="M 45.15877151489258 90.00469970703125 L 45.15877151489258 84.00469970703125 C 55.5595703125 84.00469970703125 65.32965850830078 79.95738983154297 72.66928100585938 72.60833740234375 C 80.00591278076172 65.26226806640625 84.03900909423828 55.49182891845703 84.02564239501953 45.09686660766602 C 83.99798583984375 23.59835624694824 66.48046112060547 6.085519790649414 44.92477035522461 6.057828903198242 C 34.5230598449707 6.057828903198242 24.75273323059082 10.10490131378174 17.41357040405273 17.45351982116699 C 10.07735157012939 24.79917526245117 6.044497489929199 34.56984710693359 6.057878971099854 44.96568298339844 C 6.08551549911499 66.46417236328125 23.60304260253906 83.97701263427734 45.10989761352539 84.00466156005859 L 45.15877151489258 90.00469970703125 M 45.15877151489258 90.00469970703125 C 45.13755035400391 90.00469970703125 45.12085342407227 90.00469207763672 45.09962463378906 90.00466156005859 C 20.25571632385254 89.97270202636719 0.08982458710670471 69.81150054931641 0.05787913501262665 44.97339248657227 C 0.02594085969030857 20.15499114990234 20.10807609558105 0.05782726034522057 44.92476272583008 0.05782726034522057 C 44.9444694519043 0.05782726034522057 44.96416473388672 0.05783991143107414 44.98387908935547 0.05786525830626488 C 69.82780456542969 0.08982889354228973 89.99368286132812 20.25101089477539 90.02564239501953 45.08913803100586 C 90.05756378173828 69.90602111816406 69.97336578369141 90.00469970703125 45.15877151489258 90.00469970703125 Z"/>
    </g>
    <g id="Group_7" data-name="Group 7" transform="translate(71.727 0.092)">
      <path id="Path_7" data-name="Path 7" class="cls-2" d="M.022,17.1c52.437-38.406,93,.12,93,.12"/>
      <path id="Path_8" data-name="Path 8" class="cls-2" d="M0,0-.018,14.879l14.891-.018" transform="matrix(-0.208, -0.978, 0.978, -0.208, 81.409, 21.501)"/>
    </g>
    <g id="Group_8" data-name="Group 8" transform="translate(181.39 99.282) rotate(180)">
      <path id="Path_7-2" data-name="Path 7" class="cls-2" d="M.022,17.1c52.437-38.406,93,.12,93,.12" transform="translate(0 0)"/>
      <path id="Path_8-2" data-name="Path 8" class="cls-2" d="M0,0-.018,14.879l14.891-.018" transform="matrix(-0.208, -0.978, 0.978, -0.208, 81.409, 21.501)"/>
    </g>
  </g>
</svg>
